<svg version="1.1" id="Layer_1" xmlns="http://www.w3.org/2000/svg" xmlns:xlink="http://www.w3.org/1999/xlink" x="0px" y="0px"
	 width="100%" viewBox="0 0 800 800" enable-background="new 0 0 800 800" xml:space="preserve">
<path fill="#000000" opacity="1.000000" stroke="none" 
	d="
M724.000000,801.000000 
	C482.666656,801.000000 241.833328,801.000000 1.000000,801.000000 
	C1.000000,534.333313 1.000000,267.666656 1.000000,1.000000 
	C267.666656,1.000000 534.333313,1.000000 801.000000,1.000000 
	C801.000000,267.666656 801.000000,534.333313 801.000000,801.000000 
	C775.500000,801.000000 750.000000,801.000000 724.000000,801.000000 
M600.582153,434.965546 
	C600.746155,434.658783 600.910156,434.352020 600.999390,434.010468 
	C600.999390,434.010468 601.037903,434.083435 601.715454,434.002533 
	C602.514954,433.021088 603.314514,432.039673 604.755371,430.756927 
	C610.302551,424.041321 609.864563,415.973572 610.018982,407.330322 
	C609.974731,406.872803 609.930542,406.415253 609.996399,405.054138 
	C609.948364,390.055328 609.900391,375.056488 609.992310,359.176697 
	C610.002930,357.364471 610.444031,355.406860 609.895752,353.783386 
	C609.406555,352.335022 607.858704,350.232788 606.717712,350.194000 
	C602.199829,350.040222 597.567993,350.155701 593.170959,351.083679 
	C591.467163,351.443298 590.274719,354.226196 588.150452,356.421204 
	C588.054565,376.261200 587.958679,396.101227 587.334106,416.181458 
	C587.197693,416.733887 587.061218,417.286316 586.321777,418.156006 
	C585.170044,419.415771 584.018311,420.675507 582.414001,422.004852 
	C582.414001,422.004852 581.975037,422.135132 581.184570,422.015625 
	C577.539612,422.671631 573.910278,423.762787 570.246460,423.894806 
	C562.143738,424.186768 554.023682,423.975769 545.910767,424.009186 
	C539.539917,424.035461 533.548950,423.074188 529.030945,417.995056 
	C529.030945,417.995056 529.113831,417.922241 528.989380,417.134247 
	C528.332642,413.643524 527.129150,410.153687 527.123230,406.661865 
	C527.106445,396.782806 527.580200,386.902924 527.995117,376.341522 
	C527.952332,375.882324 527.909607,375.423096 527.955566,374.500092 
	C527.955566,374.500092 527.857544,374.038208 527.989929,373.105896 
	C527.999573,368.778229 528.127930,364.446960 527.994995,360.123657 
	C527.685120,350.041595 527.634277,350.043854 517.727173,350.016846 
	C515.563354,350.010956 513.387817,349.851074 511.238373,350.022125 
	C507.937622,350.284821 505.635956,351.492004 505.936157,355.541901 
	C506.242981,359.680786 506.094238,363.853455 506.024719,368.940216 
	C506.080994,377.257141 506.137268,385.574036 506.037323,394.689148 
	C506.343201,401.769165 506.758636,408.846527 506.932892,415.929779 
	C507.339264,432.449432 522.456238,442.456268 536.696472,442.091156 
	C551.160156,441.720306 565.642395,441.879059 580.113037,442.070435 
	C586.352051,442.152954 591.991577,440.827484 597.677979,437.048553 
	C598.163940,436.736786 598.649902,436.424988 599.126587,436.047150 
	C599.126587,436.047150 599.081604,436.096436 599.579407,435.945770 
	C599.746033,435.655029 599.912659,435.364288 599.987671,435.026581 
	C599.987671,435.026581 600.056274,435.104218 600.582153,434.965546 
M477.171783,350.062500 
	C469.458466,350.233887 467.996277,351.680481 468.029114,359.197388 
	C468.054993,365.126709 468.120056,371.055908 468.024811,377.814209 
	C468.065674,379.213379 468.106506,380.612549 468.019684,382.712555 
	C467.355164,383.855774 466.690643,384.998993 465.092651,385.997742 
	C447.729279,386.379730 430.365875,386.761719 412.130890,387.005432 
	C410.867889,386.936066 409.604919,386.866699 408.012390,386.779236 
	C408.012390,383.425568 408.033783,380.456360 408.006622,377.487579 
	C407.977753,374.333038 407.902802,371.178894 407.989685,367.170227 
	C407.665161,363.433441 407.386169,359.691956 407.002960,355.961182 
	C406.634674,352.375885 404.569916,350.257629 400.995056,350.050781 
	C397.364777,349.840729 393.701019,349.796143 390.075745,350.037445 
	C386.821045,350.254089 384.582062,351.589966 384.908295,355.622742 
	C385.267517,360.064087 385.084930,364.549255 385.020782,369.943817 
	C385.062988,390.629120 385.105194,411.314453 385.020081,432.863739 
	C384.623383,442.393982 386.647003,442.519867 393.983368,442.029816 
	C396.458038,441.864532 398.984772,441.780151 401.434387,442.085968 
	C406.269165,442.689575 408.065216,440.305847 408.051453,435.913818 
	C408.022369,426.633575 407.950562,417.353516 408.034088,407.382874 
	C408.680481,406.885437 409.326904,406.388000 410.912201,405.988922 
	C429.593048,406.041962 448.273895,406.095032 466.995239,406.594574 
	C466.995239,406.594574 467.125946,407.023407 467.040527,407.862976 
	C467.408630,413.234406 467.776733,418.605835 468.012085,424.901825 
	C468.003235,428.396332 467.807526,431.903015 468.034790,435.382080 
	C468.294495,439.357147 469.786926,442.323151 474.637177,442.082062 
	C478.454773,441.892303 482.292053,441.977783 486.116425,442.086975 
	C488.767242,442.162659 490.085266,441.319092 490.077393,438.397095 
	C490.001129,410.107513 490.044556,381.817505 489.867737,353.528778 
	C489.860657,352.399750 487.993500,351.282410 486.105316,350.017151 
	C483.403961,350.071808 480.702576,350.126434 477.171783,350.062500 
M671.917969,461.994202 
	C690.952271,461.924866 709.986572,461.855530 729.673096,461.935455 
	C730.114990,461.893097 730.556885,461.850769 731.491943,461.980072 
	C731.657776,461.927246 731.823669,461.874390 732.734985,461.960968 
	C734.001465,459.329651 736.137085,456.752655 736.305847,454.052765 
	C736.499756,450.950378 733.343750,450.969299 730.752319,450.969666 
	C510.907959,451.000427 291.063599,451.005768 71.219276,450.933502 
	C67.521156,450.932281 65.483932,451.570465 65.950111,455.817749 
	C66.365456,459.601868 66.939034,462.864960 72.917923,461.979828 
	C85.276680,461.934113 97.635429,461.888397 110.919746,462.005219 
	C159.673370,462.008820 208.427002,462.038696 257.180603,462.006165 
	C286.460175,461.986603 315.739685,461.869751 345.912109,461.957031 
	C348.934814,461.916901 351.957550,461.876770 355.907471,462.002106 
	C416.984406,462.004883 478.061310,462.023987 539.138245,462.002167 
	C562.432495,461.993835 585.726807,461.891785 609.497131,461.969513 
	C609.497131,461.969513 609.975464,461.840790 610.895630,462.003174 
	C615.265747,461.950104 619.635925,461.897034 624.933044,461.988373 
	C640.285828,461.937805 655.638550,461.887268 671.917969,461.994202 
M699.844910,441.961792 
	C700.833008,441.404633 701.821106,440.847473 702.937866,440.361664 
	C702.937866,440.361664 703.210938,440.281250 703.094666,441.228027 
	C714.957458,444.298615 735.928101,436.024658 734.915344,417.647705 
	C734.541687,410.868744 735.871216,403.446167 730.013977,397.198242 
	C729.381836,395.509521 728.749695,393.820831 728.800293,391.792542 
	C732.276062,383.747925 734.104004,375.448883 731.895569,366.755890 
	C729.972656,359.186707 720.835205,351.346588 713.614807,351.024414 
	C703.367981,350.567261 693.109680,350.033051 682.858765,350.080048 
	C665.289368,350.160583 647.721802,350.665588 630.153503,350.991272 
	C629.820801,350.997437 629.327576,350.848450 629.181824,351.013184 
	C628.386719,351.911377 627.677063,352.885223 626.183655,354.305328 
	C626.095581,367.595490 625.991943,380.885620 625.964233,394.175903 
	C625.962830,394.859772 626.611145,395.545013 626.962708,397.137970 
	C626.631287,404.568878 626.106018,411.997925 626.034607,419.431335 
	C625.984497,424.641418 626.553894,429.857422 626.953186,435.928162 
	C627.158081,438.684296 625.824158,442.152283 630.891479,442.110748 
	C653.598877,441.924408 676.307617,441.907684 699.844910,441.961792 
M275.908508,443.018616 
	C280.276093,442.962250 284.643707,442.905914 289.832520,442.982086 
	C290.556061,441.723663 291.905701,440.467896 291.911072,439.206360 
	C292.031158,411.089844 291.967926,382.972565 292.051392,354.855774 
	C292.060852,351.660004 290.683441,350.843109 287.819366,350.960876 
	C284.165314,351.111084 280.472595,351.281433 276.847290,350.925812 
	C272.298096,350.479553 270.838959,351.927490 270.883789,356.689331 
	C271.123505,382.142151 270.997620,407.598389 270.994659,433.053467 
	C270.994507,434.383087 271.345032,435.868774 270.877472,437.014557 
	C269.132111,441.291565 271.593597,442.345398 275.908508,443.018616 
M343.993195,421.561615 
	C343.993195,421.561615 344.035034,421.097656 344.736450,421.211060 
	C346.824219,424.265076 349.152130,427.185547 350.942322,430.405029 
	C353.486389,434.980286 355.245728,440.043182 358.185150,444.316681 
	C359.090271,445.632629 362.863190,445.536896 365.095428,445.048157 
	C365.793579,444.895325 366.614777,440.923431 365.892334,439.409393 
	C362.464752,432.226074 358.900238,425.047974 354.633240,418.346283 
	C351.748993,413.816223 349.714386,409.662903 349.853943,403.995850 
	C350.267914,387.188751 349.762482,370.359222 350.160095,353.551300 
	C350.266815,349.039398 348.344025,347.315826 344.810791,347.479645 
	C341.322601,347.641388 339.765747,350.159058 339.920197,353.974335 
	C340.196136,360.790009 340.046661,367.625488 339.958466,374.451172 
	C339.939758,375.897858 339.420685,377.338043 339.132111,378.781219 
	C338.001984,374.196320 338.002411,369.757507 338.001892,365.318726 
	C338.001434,361.156036 338.560181,356.883698 337.775543,352.874359 
	C337.348450,350.692200 334.910004,348.498077 332.816254,347.262634 
	C332.059753,346.816223 328.784088,348.809082 328.206207,350.292145 
	C327.180206,352.925201 327.064606,356.016876 327.043732,358.920105 
	C326.942017,373.072540 326.988800,387.226135 327.011047,401.379272 
	C327.013367,402.862152 327.442322,404.377716 327.246277,405.820038 
	C326.927338,408.166382 327.008911,411.170624 325.607605,412.666138 
	C317.865051,420.929230 315.118469,431.746155 310.304596,441.481781 
	C309.130951,443.855377 309.981415,445.719604 313.393005,446.094238 
	C317.953644,446.595062 321.083893,443.505005 322.996094,438.693726 
	C324.678406,434.460876 326.380676,430.235992 328.074127,426.007568 
	C327.359802,432.760315 329.020142,436.560577 334.912262,439.973267 
	C339.993408,442.916290 343.125122,439.519501 346.247314,436.239349 
	C349.229492,433.106323 348.515564,429.715210 346.841919,426.372009 
	C346.057831,424.805817 344.851593,423.450989 343.993195,421.561615 
M200.919708,393.006683 
	C211.948639,392.953613 222.977554,392.900543 234.762192,392.991364 
	C238.591293,393.204498 239.611588,396.136200 239.669144,399.043488 
	C239.681290,399.656860 235.982437,400.885193 233.982285,400.909576 
	C220.322891,401.076111 206.654205,401.245575 193.001495,400.900787 
	C185.169479,400.702972 179.423630,402.860352 173.956833,409.114380 
	C166.097168,418.105865 170.992035,437.979248 182.707840,440.750763 
	C189.941742,442.462067 197.766251,441.894775 205.328781,441.955170 
	C223.052917,442.096741 240.778931,442.000427 259.672333,442.000427 
	C259.472839,438.128662 259.071686,433.571289 259.035400,429.011017 
	C258.939911,417.016357 259.003143,405.020447 259.003143,393.025055 
	C259.003143,382.488434 252.517242,376.000488 241.966766,375.998077 
	C223.973679,375.993958 205.980576,375.997192 187.987488,375.997101 
	C177.867691,375.997040 178.082870,376.000610 177.904312,386.169952 
	C177.817429,391.119324 180.256744,392.865051 184.511429,392.962433 
	C189.668564,393.080505 194.832535,392.899109 200.919708,393.006683 
M137.500061,424.996826 
	C128.424866,424.663330 119.329201,424.596375 110.281685,423.902100 
	C104.307930,423.443695 98.765785,421.008698 94.852486,416.343933 
	C88.386093,408.635773 87.893036,399.280853 89.655121,390.026215 
	C90.716248,384.453094 91.646584,378.701233 97.383171,374.656708 
	C104.016693,369.979767 111.150146,368.342255 118.729103,368.099274 
	C130.209686,367.731232 141.710785,368.002838 153.203171,368.003204 
	C165.185776,368.003601 165.049866,368.003448 165.084885,355.765656 
	C165.095566,352.038269 163.940414,350.891418 160.223541,350.924316 
	C142.070328,351.084869 123.914902,350.985901 105.760345,351.020660 
	C104.472801,351.023102 103.068558,351.091919 101.918221,351.590515 
	C95.659630,354.303253 89.428703,357.085999 83.254845,359.986420 
	C75.013809,363.858002 70.381073,371.360657 68.336891,379.311768 
	C65.732750,389.440948 65.942528,400.041809 67.805840,410.690063 
	C70.457672,425.844574 84.974937,438.787659 99.034805,440.759003 
	C112.020256,442.579742 125.289436,442.505859 138.444382,442.944397 
	C147.533615,443.247437 156.641098,443.002594 166.003265,443.002594 
	C166.003265,438.517181 165.874191,434.542053 166.039337,430.579163 
	C166.206558,426.566528 164.537537,424.870117 160.484573,424.954071 
	C153.159241,425.105835 145.828506,424.996948 137.500061,424.996826 
z"/>
<path fill="#FCFEFF" opacity="1.000000" stroke="none" 
	d="
M354.980255,461.836670 
	C351.957550,461.876770 348.934814,461.916901 345.449371,461.471802 
	C343.206177,460.324463 341.426453,459.085358 339.645233,459.083191 
	C262.768524,458.989777 185.891693,459.006073 108.544678,459.005249 
	C95.753967,459.001434 83.433449,459.001434 70.930679,459.001434 
	C71.344246,460.100616 71.667824,460.960632 71.991402,461.820648 
	C66.939034,462.864960 66.365456,459.601868 65.950111,455.817749 
	C65.483932,451.570465 67.521156,450.932281 71.219276,450.933502 
	C291.063599,451.005768 510.907959,451.000427 730.752319,450.969666 
	C733.343750,450.969299 736.499756,450.950378 736.305847,454.052765 
	C736.137085,456.752655 734.001465,459.329651 732.270630,461.745972 
	C731.537109,461.623474 731.267944,461.715942 730.998779,461.808441 
	C730.556885,461.850769 730.114990,461.893097 729.256836,461.499542 
	C725.865540,460.379944 722.897156,459.140747 719.914368,459.104980 
	C703.614136,458.909515 687.310364,459.009735 670.538330,459.003906 
	C654.710144,459.003357 639.351440,459.007233 623.524475,459.010376 
	C536.747009,459.009399 450.437683,458.980316 364.128693,459.128174 
	C361.077667,459.133392 358.029663,460.894104 354.980255,461.836670 
z"/>
<path fill="#FDFDFD" opacity="1.000000" stroke="none" 
	d="
M199.993561,392.847290 
	C194.832535,392.899109 189.668564,393.080505 184.511429,392.962433 
	C180.256744,392.865051 177.817429,391.119324 177.904312,386.169952 
	C178.082870,376.000610 177.867691,375.997040 187.987488,375.997101 
	C205.980576,375.997192 223.973679,375.993958 241.966766,375.998077 
	C252.517242,376.000488 259.003143,382.488434 259.003143,393.025055 
	C259.003143,405.020447 258.939911,417.016357 259.035400,429.011017 
	C259.071686,433.571289 259.472839,438.128662 259.672333,442.000427 
	C240.778931,442.000427 223.052917,442.096741 205.328781,441.955170 
	C197.766251,441.894775 189.941742,442.462067 182.707840,440.750763 
	C170.992035,437.979248 166.097168,418.105865 173.956833,409.114380 
	C179.423630,402.860352 185.169479,400.702972 193.001495,400.900787 
	C206.654205,401.245575 220.322891,401.076111 233.982285,400.909576 
	C235.982437,400.885193 239.681290,399.656860 239.669144,399.043488 
	C239.611588,396.136200 238.591293,393.204498 234.362030,392.512817 
	C233.041183,391.357910 232.129395,390.108307 231.198395,390.093872 
	C221.793976,389.947571 212.384491,389.916809 202.982559,390.127197 
	C201.966446,390.149963 200.988968,391.898987 199.993561,392.847290 
M199.634460,425.996857 
	C211.597351,425.996857 223.561981,425.883972 235.521973,426.070282 
	C238.818787,426.121643 239.840088,424.610535 239.982361,421.820282 
	C240.056625,420.363708 239.995453,418.900238 239.995453,417.839600 
	C223.813126,417.839600 207.940796,417.839600 192.105103,417.839600 
	C191.906784,425.991364 191.906784,425.991364 199.634460,425.996857 
z"/>
<path fill="#FDFDFD" opacity="1.000000" stroke="none" 
	d="
M138.000046,424.996857 
	C145.828506,424.996948 153.159241,425.105835 160.484573,424.954071 
	C164.537537,424.870117 166.206558,426.566528 166.039337,430.579163 
	C165.874191,434.542053 166.003265,438.517181 166.003265,443.002594 
	C156.641098,443.002594 147.533615,443.247437 138.444382,442.944397 
	C125.289436,442.505859 112.020256,442.579742 99.034805,440.759003 
	C84.974937,438.787659 70.457672,425.844574 67.805840,410.690063 
	C65.942528,400.041809 65.732750,389.440948 68.336891,379.311768 
	C70.381073,371.360657 75.013809,363.858002 83.254845,359.986420 
	C89.428703,357.085999 95.659630,354.303253 101.918221,351.590515 
	C103.068558,351.091919 104.472801,351.023102 105.760345,351.020660 
	C123.914902,350.985901 142.070328,351.084869 160.223541,350.924316 
	C163.940414,350.891418 165.095566,352.038269 165.084885,355.765656 
	C165.049866,368.003448 165.185776,368.003601 153.203171,368.003204 
	C141.710785,368.002838 130.209686,367.731232 118.729103,368.099274 
	C111.150146,368.342255 104.016693,369.979767 97.383171,374.656708 
	C91.646584,378.701233 90.716248,384.453094 89.655121,390.026215 
	C87.893036,399.280853 88.386093,408.635773 94.852486,416.343933 
	C98.765785,421.008698 104.307930,423.443695 110.281685,423.902100 
	C119.329201,424.596375 128.424866,424.663330 138.000046,424.996857 
M77.848122,380.331024 
	C73.536606,388.536041 75.099487,397.091919 76.373421,405.616913 
	C77.168747,410.939117 76.620384,416.781555 81.354332,420.721771 
	C82.596222,421.755463 84.450478,422.053467 86.023506,422.689331 
	C86.074043,421.182648 86.561081,419.522980 86.096382,418.196838 
	C84.452217,413.504822 82.215088,409.010132 80.740479,404.273224 
	C79.906212,401.593262 79.759003,398.558868 79.973640,395.735168 
	C80.162132,393.255371 81.941139,390.826111 81.865295,388.410706 
	C81.687233,382.740356 83.943253,378.165802 86.834656,373.609650 
	C87.744865,372.175354 87.843895,370.226288 88.314186,368.512848 
	C86.232109,369.020111 83.210487,368.854279 82.264145,370.175201 
	C80.313782,372.897644 79.471352,376.413879 77.848122,380.331024 
M133.500000,361.000000 
	C142.603439,360.318420 151.995499,362.554260 160.877121,358.778931 
	C160.208618,357.679840 159.530411,357.074982 158.850067,357.072571 
	C142.378296,357.014008 125.905670,356.957397 109.435379,357.120819 
	C107.966843,357.135376 106.513214,358.653931 105.052666,359.473999 
	C105.260201,359.982666 105.467743,360.491333 105.675278,361.000000 
	C114.616852,361.000000 123.558426,361.000000 133.500000,361.000000 
z"/>
<path fill="#FCFEFF" opacity="1.000000" stroke="none" 
	d="
M343.836700,422.000366 
	C344.851593,423.450989 346.057831,424.805817 346.841919,426.372009 
	C348.515564,429.715210 349.229492,433.106323 346.247314,436.239349 
	C343.125122,439.519501 339.993408,442.916290 334.912262,439.973267 
	C329.020142,436.560577 327.359802,432.760315 328.074127,426.007568 
	C326.380676,430.235992 324.678406,434.460876 322.996094,438.693726 
	C321.083893,443.505005 317.953644,446.595062 313.393005,446.094238 
	C309.981415,445.719604 309.130951,443.855377 310.304596,441.481781 
	C315.118469,431.746155 317.865051,420.929230 325.607605,412.666138 
	C327.008911,411.170624 326.927338,408.166382 327.246277,405.820038 
	C327.442322,404.377716 327.013367,402.862152 327.011047,401.379272 
	C326.988800,387.226135 326.942017,373.072540 327.043732,358.920105 
	C327.064606,356.016876 327.180206,352.925201 328.206207,350.292145 
	C328.784088,348.809082 332.059753,346.816223 332.816254,347.262634 
	C334.910004,348.498077 337.348450,350.692200 337.775543,352.874359 
	C338.560181,356.883698 338.001434,361.156036 338.001892,365.318726 
	C338.002411,369.757507 338.001984,374.196320 339.132111,378.781219 
	C339.420685,377.338043 339.939758,375.897858 339.958466,374.451172 
	C340.046661,367.625488 340.196136,360.790009 339.920197,353.974335 
	C339.765747,350.159058 341.322601,347.641388 344.810791,347.479645 
	C348.344025,347.315826 350.266815,349.039398 350.160095,353.551300 
	C349.762482,370.359222 350.267914,387.188751 349.853943,403.995850 
	C349.714386,409.662903 351.748993,413.816223 354.633240,418.346283 
	C358.900238,425.047974 362.464752,432.226074 365.892334,439.409393 
	C366.614777,440.923431 365.793579,444.895325 365.095428,445.048157 
	C362.863190,445.536896 359.090271,445.632629 358.185150,444.316681 
	C355.245728,440.043182 353.486389,434.980286 350.942322,430.405029 
	C349.152130,427.185547 346.824219,424.265076 344.380157,420.782196 
	C344.906219,418.474548 345.788544,416.595734 346.768433,414.509186 
	C342.260986,410.521027 340.971497,404.332184 342.543640,399.657013 
	C344.140961,394.907013 343.095795,391.269196 341.683380,387.583130 
	C340.956451,385.686005 337.768707,384.731781 335.692963,383.351501 
	C335.147919,384.277832 333.908020,385.665070 334.168213,386.057343 
	C336.179749,389.090118 334.950562,392.094330 334.624115,395.182526 
	C334.194397,399.247559 334.115723,403.352325 333.963226,407.442902 
	C333.877747,409.736176 333.947876,412.035278 333.947876,415.397491 
	C333.742737,415.695312 332.824738,417.028046 331.975250,418.261292 
	C332.995544,419.904266 333.874054,421.269440 334.703003,422.664124 
	C336.361847,425.455139 337.792725,428.417297 339.760803,430.966766 
	C340.338989,431.715759 342.824707,431.889343 343.675751,431.274323 
	C344.501526,430.677551 344.927002,428.492188 344.490448,427.431580 
	C343.872437,425.929871 342.302063,424.820129 340.712280,423.074677 
	C341.939148,422.652832 342.887909,422.326599 343.836700,422.000366 
M332.531677,427.762085 
	C332.403961,428.151215 332.255280,428.535645 332.166382,428.933472 
	C332.148834,429.012024 332.361298,429.142029 332.467682,429.248322 
	C332.595184,428.859222 332.722717,428.470123 332.531677,427.762085 
M335.483002,369.586914 
	C335.483002,369.586914 335.417694,369.477112 335.483002,369.586914 
z"/>
<path fill="#FDFDFD" opacity="1.000000" stroke="none" 
	d="
M274.989014,442.863495 
	C271.593597,442.345398 269.132111,441.291565 270.877472,437.014557 
	C271.345032,435.868774 270.994507,434.383087 270.994659,433.053467 
	C270.997620,407.598389 271.123505,382.142151 270.883789,356.689331 
	C270.838959,351.927490 272.298096,350.479553 276.847290,350.925812 
	C280.472595,351.281433 284.165314,351.111084 287.819366,350.960876 
	C290.683441,350.843109 292.060852,351.660004 292.051392,354.855774 
	C291.967926,382.972565 292.031158,411.089844 291.911072,439.206360 
	C291.905701,440.467896 290.556061,441.723663 289.350677,442.539307 
	C285.274689,438.743774 278.419800,439.122559 274.989014,442.863495 
z"/>
<path fill="#DF1514" opacity="1.000000" stroke="none" 
	d="
M586.924805,417.838745 
	C587.061218,417.286316 587.197693,416.733887 587.967896,416.020874 
	C589.072693,414.568237 589.543640,413.276184 590.410400,411.896606 
	C591.204163,410.149475 591.935303,408.492249 591.947266,406.829834 
	C592.042664,393.579163 592.000366,380.327484 592.003235,367.076141 
	C592.004761,359.947937 597.782227,355.918213 605.037231,358.343719 
	C606.043518,359.460815 607.015076,360.239105 607.988464,361.484924 
	C607.992737,373.632965 607.995178,385.313446 607.631775,397.071014 
	C605.325684,399.377655 604.932983,401.412842 608.001282,403.427368 
	C608.000061,405.221344 608.000061,406.601318 607.710510,408.268555 
	C605.946533,415.370544 604.472046,422.185333 602.722107,429.134033 
	C601.977051,430.873108 601.507507,432.478271 601.037903,434.083435 
	C601.037903,434.083435 600.999390,434.010468 600.789551,434.117249 
	C600.405151,434.517395 600.230713,434.810791 600.056274,435.104218 
	C600.056274,435.104218 599.987671,435.026581 599.765991,435.016602 
	C599.365234,435.002838 599.186157,434.999054 598.603516,434.993042 
	C595.802856,435.662720 593.405945,436.334595 590.821777,436.672119 
	C586.908142,435.316681 583.181641,434.295654 579.212646,433.208160 
	C579.472595,430.490173 579.735046,427.746307 580.277100,425.002106 
	C581.029541,424.046234 581.502258,423.090668 581.975037,422.135132 
	C581.975037,422.135132 582.414001,422.004852 582.904175,422.123383 
	C584.843140,422.063629 586.291992,421.885345 587.740784,421.707092 
	C587.468750,420.417633 587.196777,419.128174 586.924805,417.838745 
z"/>
<path fill="#DF1514" opacity="1.000000" stroke="none" 
	d="
M506.193542,393.890961 
	C506.137268,385.574036 506.080994,377.257141 506.454956,368.458862 
	C507.594696,367.249115 508.579346,366.643066 508.966797,365.771484 
	C510.787842,361.675079 514.717224,359.866638 520.201599,361.080658 
	C524.144043,361.953339 525.215393,364.838196 525.022522,368.587708 
	C524.615295,376.501709 524.286743,384.421234 524.074890,392.342468 
	C524.033569,393.887848 524.667969,395.451294 524.992432,397.473328 
	C524.996521,402.202942 524.580383,406.523071 525.154175,410.707428 
	C525.513367,413.326721 524.423035,417.422241 529.113831,417.922241 
	C529.113831,417.922241 529.030945,417.995056 529.032410,418.328491 
	C530.026001,420.441467 531.018066,422.220978 532.007446,424.439331 
	C531.996033,435.241974 530.890747,436.359161 521.630249,434.980194 
	C516.244019,431.322906 511.377869,427.545380 510.777313,420.681610 
	C510.134399,413.333588 509.569397,405.978638 508.991852,398.625031 
	C508.830627,396.572083 509.615570,393.999939 506.193542,393.890961 
z"/>
<path fill="#E51011" opacity="1.000000" stroke="none" 
	d="
M728.117554,392.132111 
	C728.749695,393.820831 729.381836,395.509521 729.902100,397.875885 
	C729.534180,399.699005 729.278137,400.844482 728.729431,402.265015 
	C728.291077,403.663849 728.045410,404.785004 728.016541,405.911713 
	C727.871826,411.552887 721.670227,418.845490 715.985413,419.547913 
	C715.990479,417.273560 716.035095,415.448639 715.982300,413.626526 
	C715.832458,408.447968 712.169006,403.734161 706.823853,401.679138 
	C700.297119,397.974243 700.299133,397.974670 701.964294,390.016235 
	C702.031250,389.696320 701.993713,389.354523 702.295166,389.015594 
	C702.989075,388.714417 703.621826,388.494781 703.746155,388.110565 
	C703.972900,387.410004 703.898254,386.611877 704.152893,385.541901 
	C707.343201,385.005981 709.388000,384.110413 710.223389,380.612671 
	C711.394287,375.709656 710.191833,371.216583 706.151672,367.852417 
	C707.656250,365.795349 708.470581,363.071960 710.158447,362.326569 
	C713.873169,360.686096 718.029053,360.044434 722.309814,359.147552 
	C724.418640,362.488739 726.756775,365.495605 727.916992,368.903473 
	C730.479065,376.429108 727.573425,383.705139 725.631226,391.060181 
	C723.753052,394.249268 723.753052,394.249268 726.619568,395.892273 
	C726.740234,394.642456 726.867920,393.319763 727.277344,392.020569 
	C727.745239,392.073425 727.931396,392.102783 728.117554,392.132111 
z"/>
<path fill="#E51011" opacity="1.000000" stroke="none" 
	d="
M407.847992,368.024597 
	C407.902802,371.178894 407.977753,374.333038 408.006622,377.487579 
	C408.033783,380.456360 408.012390,383.425568 408.012390,386.779236 
	C409.604919,386.866699 410.867889,386.936066 412.561249,387.383545 
	C412.985352,388.173615 412.979126,388.585602 412.644653,388.996704 
	C411.878754,388.998047 411.441101,389.000305 410.804504,388.748138 
	C409.801453,388.402740 408.997375,388.311768 408.193268,388.220764 
	C408.177521,388.481323 408.161743,388.741882 408.145966,389.002441 
	C409.098358,389.002441 410.050781,389.002441 411.046082,389.390137 
	C414.337402,399.298767 414.101471,400.495850 408.115845,403.218201 
	C408.913635,403.551361 409.465393,403.781799 410.010193,404.325195 
	C409.993225,405.055634 409.983246,405.473114 409.973297,405.890564 
	C409.326904,406.388000 408.680481,406.885437 407.697266,408.009003 
	C407.205292,411.074615 407.050171,413.514130 406.626953,415.666229 
	C406.144287,412.643463 405.929688,409.908051 405.715057,407.172668 
	C404.599304,409.221619 404.170959,411.275452 404.025238,413.349091 
	C403.588074,419.569641 399.940643,422.084869 394.181610,419.902954 
	C392.060608,419.099426 390.061829,417.973206 388.007324,416.525879 
	C388.006134,401.705872 388.004913,387.354156 388.437805,373.001740 
	C393.913391,374.001526 398.954865,375.001984 404.234436,376.242737 
	C404.982300,375.091370 405.460663,373.687195 406.010468,372.311615 
	C406.587280,370.868347 407.232574,369.452423 407.847992,368.024597 
M405.296356,385.432404 
	C405.011353,385.704620 404.726349,385.976807 404.441345,386.249023 
	C404.554138,386.367065 404.666901,386.485107 404.779663,386.603149 
	C405.064606,386.330688 405.349548,386.058258 405.296356,385.432404 
M405.584747,379.516571 
	C405.584747,379.516571 405.474762,379.582245 405.584747,379.516571 
z"/>
<path fill="#D21C19" opacity="1.000000" stroke="none" 
	d="
M410.017181,404.012207 
	C409.465393,403.781799 408.913635,403.551361 408.115845,403.218201 
	C414.101471,400.495850 414.337402,399.298767 411.044495,389.388916 
	C411.000000,389.000000 411.003448,389.002563 411.003448,389.002563 
	C411.441101,389.000305 411.878754,388.998047 413.116394,388.997314 
	C430.618774,389.008972 447.321167,389.019073 463.971619,389.415680 
	C462.231689,394.339294 463.228027,397.884613 466.994659,401.207733 
	C468.681946,402.696350 469.038452,405.693329 469.714661,407.887085 
	C468.662262,407.520020 467.894104,407.271729 467.125946,407.023407 
	C467.125946,407.023407 466.995239,406.594574 466.820343,406.011597 
	C465.318665,404.955658 464.002655,404.113678 462.663208,404.074615 
	C457.296936,403.918182 451.923401,404.011078 446.552551,404.011261 
	C434.374084,404.011719 422.195648,404.011902 410.017181,404.012207 
z"/>
<path fill="#E4EBEE" opacity="1.000000" stroke="none" 
	d="
M355.443848,461.919373 
	C358.029663,460.894104 361.077667,459.133392 364.128693,459.128174 
	C450.437683,458.980316 536.747009,459.009399 623.527893,459.364227 
	C624.001709,460.427246 624.003906,461.135590 624.006104,461.843964 
	C619.635925,461.897034 615.265747,461.950104 610.347229,461.777313 
	C609.539551,461.645142 609.280334,461.738800 609.021057,461.832489 
	C585.726807,461.891785 562.432495,461.993835 539.138245,462.002167 
	C478.061310,462.023987 416.984406,462.004883 355.443848,461.919373 
z"/>
<path fill="#E51011" opacity="1.000000" stroke="none" 
	d="
M469.998901,408.005829 
	C469.038452,405.693329 468.681946,402.696350 466.994659,401.207733 
	C463.228027,397.884613 462.231689,394.339294 464.330566,389.408691 
	C465.826019,389.015228 466.910553,389.015228 468.126038,389.015228 
	C467.262146,387.833282 466.644135,386.987762 466.026123,386.142242 
	C466.690643,384.998993 467.355164,383.855774 468.441925,382.349518 
	C469.587128,381.464600 470.468292,381.070190 471.007935,380.400574 
	C475.267761,375.114655 481.926605,373.249634 486.995850,376.471527 
	C487.303802,390.959564 487.607391,404.979187 487.549377,419.003357 
	C484.372467,419.828705 481.454437,420.226288 480.071899,416.955048 
	C478.289825,412.738434 475.123535,411.649170 471.007690,411.632294 
	C470.669250,410.179962 470.334076,409.092896 469.998901,408.005829 
M469.703979,386.567535 
	C469.989288,386.295074 470.274597,386.022644 470.559906,385.750214 
	C470.447052,385.632019 470.334198,385.513855 470.221313,385.395691 
	C469.936035,385.668488 469.650757,385.941284 469.703979,386.567535 
z"/>
<path fill="#D21C19" opacity="1.000000" stroke="none" 
	d="
M703.210938,440.281250 
	C703.210938,440.281250 702.937866,440.361664 702.405151,440.229156 
	C701.249084,440.067047 700.625793,440.037445 699.706177,439.713593 
	C684.934204,439.278320 670.458557,439.137329 656.025024,438.640686 
	C658.823730,434.623291 661.431396,430.925873 659.471130,426.016724 
	C669.448975,425.669830 678.961792,425.355164 688.470337,424.943115 
	C689.349731,424.905029 690.202332,424.247772 691.518127,423.919403 
	C695.289001,423.928436 698.609192,423.896088 702.125549,424.139801 
	C703.535339,424.321686 704.748840,424.227539 706.183228,424.063751 
	C706.403992,423.994110 706.865479,423.955933 707.149048,423.974487 
	C707.621948,423.995331 707.811401,423.997650 708.000427,424.000000 
	C708.000000,424.000000 708.000000,423.998779 708.107300,424.220917 
	C708.418152,424.717163 708.682922,424.905060 708.972656,425.354736 
	C709.150146,427.337402 708.775635,429.544312 709.696594,430.491150 
	C711.809021,432.662872 714.553223,434.220032 716.959229,436.395020 
	C712.322021,437.936005 707.766479,439.108643 703.210938,440.281250 
z"/>
<path fill="#E4EBEE" opacity="1.000000" stroke="none" 
	d="
M109.014862,459.009033 
	C185.891693,459.006073 262.768524,458.989777 339.645233,459.083191 
	C341.426453,459.085358 343.206177,460.324463 345.002930,461.391602 
	C315.739685,461.869751 286.460175,461.986603 257.180603,462.006165 
	C208.427002,462.038696 159.673370,462.008820 110.431107,461.621460 
	C109.633263,460.494781 109.324066,459.751923 109.014862,459.009033 
z"/>
<path fill="#DF1514" opacity="1.000000" stroke="none" 
	d="
M659.004883,426.022400 
	C661.431396,430.925873 658.823730,434.623291 655.558350,438.641357 
	C649.229004,438.995728 643.406616,439.083099 637.588257,438.969055 
	C630.549988,438.831085 630.045227,438.209137 629.979675,431.311615 
	C629.958313,429.064026 629.702026,426.818604 629.553223,424.572205 
	C629.255249,424.611298 628.957275,424.650391 628.659302,424.689484 
	C628.055054,428.149933 627.450867,431.610352 626.846619,435.070801 
	C626.553894,429.857422 625.984497,424.641418 626.034607,419.431335 
	C626.106018,411.997925 626.631287,404.568878 627.006592,396.216003 
	C627.114136,392.225464 627.177917,389.156860 627.479858,386.294312 
	C629.966003,387.676544 629.966003,387.676544 630.395569,383.093445 
	C631.309143,389.270172 632.047546,395.347900 632.293823,401.445496 
	C632.667236,410.689880 632.701416,419.947968 632.873962,429.200378 
	C632.971375,434.425781 636.616089,434.152557 640.238098,434.008423 
	C644.178833,433.851654 647.347168,433.009094 648.151855,428.233368 
	C648.379456,426.882202 650.435303,425.839020 651.791260,424.467651 
	C651.929871,424.280762 652.364380,424.119659 652.364380,424.119659 
	C652.364380,424.119659 652.823059,424.183838 652.987122,424.593933 
	C655.102417,425.343506 657.053650,425.682953 659.004883,426.022400 
M628.481812,408.511505 
	C628.481812,412.786285 628.481812,417.061066 628.481812,421.335846 
	C628.859497,421.321381 629.237183,421.306885 629.614868,421.292419 
	C629.614868,412.244049 629.614868,403.195679 629.614868,394.147308 
	C629.281372,394.137421 628.947876,394.127502 628.614380,394.117584 
	C628.614380,398.690033 628.614380,403.262512 628.481812,408.511505 
z"/>
<path fill="#DF2422" opacity="1.000000" stroke="none" 
	d="
M630.000000,383.003326 
	C629.966003,387.676544 629.966003,387.676544 627.422485,385.925995 
	C627.165161,384.858368 627.203186,384.365082 627.573975,383.830078 
	C627.937683,379.486420 628.080444,375.181580 627.966431,370.883514 
	C627.863403,367.003815 627.479553,363.131561 627.167358,358.806641 
	C627.056091,356.849213 626.997070,355.341125 626.938049,353.833069 
	C627.677063,352.885223 628.386719,351.911377 629.181824,351.013184 
	C629.327576,350.848450 629.820801,350.997437 630.153503,350.991272 
	C647.721802,350.665588 665.289368,350.160583 682.858765,350.080048 
	C693.109680,350.033051 703.367981,350.567261 713.614807,351.024414 
	C720.835205,351.346588 729.972656,359.186707 731.895569,366.755890 
	C734.104004,375.448883 732.276062,383.747925 728.458923,391.962341 
	C727.931396,392.102783 727.745239,392.073425 727.167725,391.799438 
	C726.570496,391.281616 726.303772,391.095886 725.976196,390.997559 
	C727.573425,383.705139 730.479065,376.429108 727.916992,368.903473 
	C726.756775,365.495605 724.418640,362.488739 722.149414,358.831116 
	C717.242798,356.573456 712.831482,353.329926 708.355286,353.237732 
	C683.811523,352.732178 659.251709,352.965637 634.697876,353.069916 
	C632.903381,353.077515 631.113098,354.070618 629.320862,354.605530 
	C629.878967,356.399597 630.437073,358.193665 630.829407,360.372864 
	C630.442505,368.173126 630.221252,375.588226 630.000000,383.003326 
z"/>
<path fill="#FDFDFD" opacity="1.000000" stroke="none" 
	d="
M343.914948,421.781006 
	C342.887909,422.326599 341.939148,422.652832 340.712280,423.074677 
	C342.302063,424.820129 343.872437,425.929871 344.490448,427.431580 
	C344.927002,428.492188 344.501526,430.677551 343.675751,431.274323 
	C342.824707,431.889343 340.338989,431.715759 339.760803,430.966766 
	C337.792725,428.417297 336.361847,425.455139 334.703003,422.664124 
	C333.874054,421.269440 332.995544,419.904266 331.975250,418.261292 
	C332.824738,417.028046 333.742737,415.695312 333.947876,415.397491 
	C333.947876,412.035278 333.877747,409.736176 333.963226,407.442902 
	C334.115723,403.352325 334.194397,399.247559 334.624115,395.182526 
	C334.950562,392.094330 336.179749,389.090118 334.168213,386.057343 
	C333.908020,385.665070 335.147919,384.277832 335.692963,383.351501 
	C337.768707,384.731781 340.956451,385.686005 341.683380,387.583130 
	C343.095795,391.269196 344.140961,394.907013 342.543640,399.657013 
	C340.971497,404.332184 342.260986,410.521027 346.768433,414.509186 
	C345.788544,416.595734 344.906219,418.474548 344.029449,420.725494 
	C344.035034,421.097656 343.993195,421.561615 343.914948,421.781006 
z"/>
<path fill="#E42C2B" opacity="1.000000" stroke="none" 
	d="
M506.115417,394.290039 
	C509.615570,393.999939 508.830627,396.572083 508.991852,398.625031 
	C509.569397,405.978638 510.134399,413.333588 510.777313,420.681610 
	C511.377869,427.545380 516.244019,431.322906 521.810364,435.302979 
	C527.578491,436.778778 532.797791,438.692841 538.071960,438.858154 
	C552.363770,439.306122 566.680603,439.135315 580.983276,438.920532 
	C584.333984,438.870270 587.667542,437.674988 591.008972,437.006500 
	C593.405945,436.334595 595.802856,435.662720 598.607788,435.269379 
	C599.037659,435.730743 599.059631,435.913574 599.081604,436.096436 
	C599.081604,436.096436 599.126587,436.047150 598.807617,436.074127 
	C598.012573,436.461365 597.536377,436.821625 597.060242,437.181885 
	C591.991577,440.827484 586.352051,442.152954 580.113037,442.070435 
	C565.642395,441.879059 551.160156,441.720306 536.696472,442.091156 
	C522.456238,442.456268 507.339264,432.449432 506.932892,415.929779 
	C506.758636,408.846527 506.343201,401.769165 506.115417,394.290039 
z"/>
<path fill="#D21C19" opacity="1.000000" stroke="none" 
	d="
M524.990662,397.006409 
	C524.667969,395.451294 524.033569,393.887848 524.074890,392.342468 
	C524.286743,384.421234 524.615295,376.501709 525.022522,368.587708 
	C525.215393,364.838196 524.144043,361.953339 520.201599,361.080658 
	C514.717224,359.866638 510.787842,361.675079 508.966797,365.771484 
	C508.579346,366.643066 507.594696,367.249115 506.515015,367.994415 
	C506.094238,363.853455 506.242981,359.680786 505.936157,355.541901 
	C505.635956,351.492004 507.937622,350.284821 511.238373,350.022125 
	C513.387817,349.851074 515.563354,350.010956 517.727173,350.016846 
	C527.634277,350.043854 527.685120,350.041595 527.994995,360.123657 
	C528.127930,364.446960 527.999573,368.778229 527.778198,373.657532 
	C527.666565,374.460754 527.766724,374.712341 527.866882,374.963898 
	C527.909607,375.423096 527.952332,375.882324 527.542908,376.780090 
	C526.727966,379.196014 526.218262,381.159607 526.032104,383.153412 
	C525.601685,387.763306 525.327942,392.387817 524.990662,397.006409 
z"/>
<path fill="#D21C19" opacity="1.000000" stroke="none" 
	d="
M608.000000,407.981293 
	C608.000061,406.601318 608.000061,405.221344 608.001282,402.997040 
	C608.000793,400.433105 607.999207,398.713501 607.997559,396.993896 
	C607.995178,385.313446 607.992737,373.632965 607.958740,361.142914 
	C606.952209,359.557190 605.977295,358.781036 605.002441,358.004883 
	C597.782227,355.918213 592.004761,359.947937 592.003235,367.076141 
	C592.000366,380.327484 592.042664,393.579163 591.947266,406.829834 
	C591.935303,408.492249 591.204163,410.149475 590.406616,411.429779 
	C590.004700,394.523865 590.038818,377.997131 589.949707,361.471008 
	C589.939636,359.613800 589.232971,357.760376 588.849365,355.905182 
	C590.274719,354.226196 591.467163,351.443298 593.170959,351.083679 
	C597.567993,350.155701 602.199829,350.040222 606.717712,350.194000 
	C607.858704,350.232788 609.406555,352.335022 609.895752,353.783386 
	C610.444031,355.406860 610.002930,357.364471 609.655640,359.927551 
	C609.224060,375.198059 609.119324,389.717712 609.070740,404.237518 
	C609.068848,404.810028 609.602295,405.384308 609.886353,405.957733 
	C609.930542,406.415253 609.974731,406.872803 609.640869,407.663025 
	C608.841858,407.990936 608.420898,407.986115 608.000000,407.981293 
z"/>
<path fill="#E42C2B" opacity="1.000000" stroke="none" 
	d="
M487.911011,418.998779 
	C487.607391,404.979187 487.303802,390.959564 487.002014,376.004425 
	C487.001434,370.051605 486.999054,365.034363 487.277893,359.746338 
	C487.370392,356.370270 487.181702,353.264923 486.993042,350.159607 
	C487.993500,351.282410 489.860657,352.399750 489.867737,353.528778 
	C490.044556,381.817505 490.001129,410.107513 490.077393,438.397095 
	C490.085266,441.319092 488.767242,442.162659 486.116425,442.086975 
	C482.292053,441.977783 478.454773,441.892303 474.637177,442.082062 
	C469.786926,442.323151 468.294495,439.357147 468.034790,435.382080 
	C467.807526,431.903015 468.003235,428.396332 468.398132,424.292480 
	C469.520782,424.332092 470.814484,424.919678 470.893951,425.640991 
	C471.181549,428.251251 470.699799,430.976990 471.196808,433.524841 
	C471.690643,436.056732 471.601227,439.172760 475.399170,439.940491 
	C485.340790,441.950134 488.004730,439.924591 487.997528,429.939606 
	C487.996582,428.619812 487.980713,427.300049 487.976074,425.544708 
	C487.957275,423.072357 487.934143,421.035583 487.911011,418.998779 
z"/>
<path fill="#D21C19" opacity="1.000000" stroke="none" 
	d="
M407.918823,367.597412 
	C407.232574,369.452423 406.587280,370.868347 406.010468,372.311615 
	C405.460663,373.687195 404.982300,375.091370 404.236603,375.779846 
	C403.996216,371.937256 404.574280,368.642548 403.792664,365.710266 
	C403.224731,363.579529 401.162964,360.762054 399.242889,360.261353 
	C390.123444,357.883179 388.010223,359.749390 387.639038,368.998535 
	C386.567291,369.003967 385.852844,369.009674 385.138367,369.015350 
	C385.084930,364.549255 385.267517,360.064087 384.908295,355.622742 
	C384.582062,351.589966 386.821045,350.254089 390.075745,350.037445 
	C393.701019,349.796143 397.364777,349.840729 400.995056,350.050781 
	C404.569916,350.257629 406.634674,352.375885 407.002960,355.961182 
	C407.386169,359.691956 407.665161,363.433441 407.918823,367.597412 
z"/>
<path fill="#DF1514" opacity="1.000000" stroke="none" 
	d="
M486.996674,360.017090 
	C486.999054,365.034363 487.001434,370.051605 486.997650,375.535980 
	C481.926605,373.249634 475.267761,375.114655 471.007935,380.400574 
	C470.468292,381.070190 469.587128,381.464600 468.505768,381.999084 
	C468.106506,380.612549 468.065674,379.213379 468.498962,377.384399 
	C469.645111,375.723145 470.792236,374.530609 470.896973,373.252686 
	C471.174683,369.863770 471.002075,366.437988 471.385162,363.015228 
	C473.075531,362.391266 474.337738,361.442108 475.713043,361.231476 
	C479.448669,360.659454 483.232147,360.400330 486.996674,360.017090 
z"/>
<path fill="#DF2422" opacity="1.000000" stroke="none" 
	d="
M626.899902,435.499481 
	C627.450867,431.610352 628.055054,428.149933 628.659302,424.689484 
	C628.957275,424.650391 629.255249,424.611298 629.553223,424.572205 
	C629.702026,426.818604 629.958313,429.064026 629.979675,431.311615 
	C630.045227,438.209137 630.549988,438.831085 637.588257,438.969055 
	C643.406616,439.083099 649.229004,438.995728 655.516235,438.996948 
	C670.458557,439.137329 684.934204,439.278320 699.606934,439.953247 
	C699.541260,440.934692 699.278564,441.382233 699.015869,441.829773 
	C676.307617,441.907684 653.598877,441.924408 630.891479,442.110748 
	C625.824158,442.152283 627.158081,438.684296 626.899902,435.499481 
z"/>
<path fill="#DF2422" opacity="1.000000" stroke="none" 
	d="
M487.971741,425.980225 
	C487.980713,427.300049 487.996582,428.619812 487.997528,429.939606 
	C488.004730,439.924591 485.340790,441.950134 475.399170,439.940491 
	C471.601227,439.172760 471.690643,436.056732 471.196808,433.524841 
	C470.699799,430.976990 471.181549,428.251251 470.893951,425.640991 
	C470.814484,424.919678 469.520782,424.332092 468.464508,423.830200 
	C467.776733,418.605835 467.408630,413.234406 467.083252,407.443176 
	C467.894104,407.271729 468.662262,407.520020 469.714661,407.887085 
	C470.334076,409.092896 470.669250,410.179962 471.004517,412.040802 
	C471.675079,417.821960 471.755371,423.016327 473.258484,427.759857 
	C474.040375,430.227539 477.015503,432.626312 479.573395,433.746094 
	C482.740875,435.132782 484.013489,432.213684 485.075897,429.552094 
	C485.618500,428.192749 486.980225,427.160370 487.971741,425.980225 
M469.409973,420.483612 
	C469.409973,420.483612 469.523193,420.415466 469.409973,420.483612 
z"/>
<path fill="#E42C2B" opacity="1.000000" stroke="none" 
	d="
M703.152832,440.754639 
	C707.766479,439.108643 712.322021,437.936005 717.343567,436.391113 
	C723.159546,435.194305 730.610046,428.318451 730.807922,423.738373 
	C731.027161,418.664032 731.148315,413.567291 730.906494,408.499664 
	C730.801758,406.304779 729.681152,404.158386 729.022095,401.989929 
	C729.278137,400.844482 729.534180,399.699005 729.937683,398.226593 
	C735.871216,403.446167 734.541687,410.868744 734.915344,417.647705 
	C735.928101,436.024658 714.957458,444.298615 703.152832,440.754639 
z"/>
<path fill="#DF2422" opacity="1.000000" stroke="none" 
	d="
M385.079590,369.479584 
	C385.852844,369.009674 386.567291,369.003967 387.639282,369.398865 
	C387.999054,370.867157 388.001343,371.934784 388.003662,373.002441 
	C388.004913,387.354156 388.006134,401.705872 388.004944,416.976685 
	C387.994385,420.601349 387.986206,423.306854 387.707031,426.262878 
	C386.673126,428.342163 385.910248,430.170959 385.147400,431.999756 
	C385.105194,411.314453 385.062988,390.629120 385.079590,369.479584 
z"/>
<path fill="#E4EBEE" opacity="1.000000" stroke="none" 
	d="
M671.007812,459.008331 
	C687.310364,459.009735 703.614136,458.909515 719.914368,459.104980 
	C722.897156,459.140747 725.865540,460.379944 728.930725,461.424927 
	C709.986572,461.855530 690.952271,461.924866 671.457581,461.561829 
	C671.000732,460.422394 671.004272,459.715363 671.007812,459.008331 
z"/>
<path fill="#D21C19" opacity="1.000000" stroke="none" 
	d="
M487.277893,359.746338 
	C483.232147,360.400330 479.448669,360.659454 475.713043,361.231476 
	C474.337738,361.442108 473.075531,362.391266 471.377869,362.572021 
	C470.640930,357.091400 470.681854,352.293030 477.413055,351.469971 
	C477.657959,351.440002 477.807312,350.628418 478.001221,350.181091 
	C480.702576,350.126434 483.403961,350.071808 486.549194,350.088379 
	C487.181702,353.264923 487.370392,356.370270 487.277893,359.746338 
z"/>
<path fill="#E42C2B" opacity="1.000000" stroke="none" 
	d="
M465.559387,386.070007 
	C466.644135,386.987762 467.262146,387.833282 468.126038,389.015228 
	C466.910553,389.015228 465.826019,389.015228 464.382507,389.022217 
	C447.321167,389.019073 430.618774,389.008972 413.444641,388.998199 
	C412.979126,388.585602 412.985352,388.173615 412.997070,387.452698 
	C430.365875,386.761719 447.729279,386.379730 465.559387,386.070007 
z"/>
<path fill="#DF2422" opacity="1.000000" stroke="none" 
	d="
M532.010193,424.000519 
	C531.018066,422.220978 530.026001,420.441467 529.056213,418.278748 
	C533.548950,423.074188 539.539917,424.035461 545.910767,424.009186 
	C554.023682,423.975769 562.143738,424.186768 570.246460,423.894806 
	C573.910278,423.762787 577.539612,422.671631 581.579834,422.075378 
	C581.502258,423.090668 581.029541,424.046234 579.934204,425.054474 
	C576.717163,425.624817 574.139954,426.466644 571.525452,426.605530 
	C558.259949,427.310120 544.997803,427.637207 532.010193,424.000519 
z"/>
<path fill="#E42C2B" opacity="1.000000" stroke="none" 
	d="
M385.083740,432.431763 
	C385.910248,430.170959 386.673126,428.342163 387.711609,426.722534 
	C388.217133,440.369690 386.014557,438.777466 398.665558,439.074463 
	C403.308441,439.183472 404.961182,436.999084 404.990082,432.838531 
	C405.019775,428.566315 404.996704,424.293762 404.996704,420.021332 
	C405.350159,420.015350 405.703613,420.009338 406.057068,420.003326 
	C406.057068,425.274109 406.057068,430.544922 406.057068,435.815704 
	C406.336395,435.806305 406.615723,435.796875 406.895050,435.787476 
	C406.895050,429.176178 406.895050,422.564911 406.895050,415.953613 
	C407.050171,413.514130 407.205292,411.074615 407.628326,408.354248 
	C407.950562,417.353516 408.022369,426.633575 408.051453,435.913818 
	C408.065216,440.305847 406.269165,442.689575 401.434387,442.085968 
	C398.984772,441.780151 396.458038,441.864532 393.983368,442.029816 
	C386.647003,442.519867 384.623383,442.393982 385.083740,432.431763 
M386.416321,434.483063 
	C386.416321,434.483063 386.524353,434.418915 386.416321,434.483063 
z"/>
<path fill="#F5F5F4" opacity="1.000000" stroke="none" 
	d="
M670.538330,459.003906 
	C671.004272,459.715363 671.000732,460.422394 670.994263,461.483063 
	C655.638550,461.887268 640.285828,461.937805 624.469604,461.916168 
	C624.003906,461.135590 624.001709,460.427246 623.996094,459.364990 
	C639.351440,459.007233 654.710144,459.003357 670.538330,459.003906 
z"/>
<path fill="#DF2422" opacity="1.000000" stroke="none" 
	d="
M588.499878,356.163208 
	C589.232971,357.760376 589.939636,359.613800 589.949707,361.471008 
	C590.038818,377.997131 590.004700,394.523865 590.010803,411.517273 
	C589.543640,413.276184 589.072693,414.568237 588.232300,415.900757 
	C587.958679,396.101227 588.054565,376.261200 588.499878,356.163208 
z"/>
<path fill="#F5F5F4" opacity="1.000000" stroke="none" 
	d="
M108.544678,459.005249 
	C109.324066,459.751923 109.633263,460.494781 109.968323,461.540161 
	C97.635429,461.888397 85.276680,461.934113 72.454666,461.900238 
	C71.667824,460.960632 71.344246,460.100616 70.930679,459.001434 
	C83.433449,459.001434 95.753967,459.001434 108.544678,459.005249 
z"/>
<path fill="#DF2422" opacity="1.000000" stroke="none" 
	d="
M410.010193,404.325195 
	C422.195648,404.011902 434.374084,404.011719 446.552551,404.011261 
	C451.923401,404.011078 457.296936,403.918182 462.663208,404.074615 
	C464.002655,404.113678 465.318665,404.955658 466.800110,405.788330 
	C448.273895,406.095032 429.593048,406.041962 410.442749,405.939758 
	C409.983246,405.473114 409.993225,405.055634 410.010193,404.325195 
z"/>
<path fill="#F5F5F4" opacity="1.000000" stroke="none" 
	d="
M200.456635,392.927002 
	C200.988968,391.898987 201.966446,390.149963 202.982559,390.127197 
	C212.384491,389.916809 221.793976,389.947571 231.198395,390.093872 
	C232.129395,390.108307 233.041183,391.357910 233.984192,392.440857 
	C222.977554,392.900543 211.948639,392.953613 200.456635,392.927002 
z"/>
<path fill="#E42C2B" opacity="1.000000" stroke="none" 
	d="
M477.586487,350.121796 
	C477.807312,350.628418 477.657959,351.440002 477.413055,351.469971 
	C470.681854,352.293030 470.640930,357.091400 471.001282,362.583649 
	C471.002075,366.437988 471.174683,369.863770 470.896973,373.252686 
	C470.792236,374.530609 469.645111,375.723145 468.570435,376.969879 
	C468.120056,371.055908 468.054993,365.126709 468.029114,359.197388 
	C467.996277,351.680481 469.458466,350.233887 477.586487,350.121796 
z"/>
<path fill="#DF2422" opacity="1.000000" stroke="none" 
	d="
M524.992432,397.473328 
	C525.327942,392.387817 525.601685,387.763306 526.032104,383.153412 
	C526.218262,381.159607 526.727966,379.196014 527.475708,377.121033 
	C527.580200,386.902924 527.106445,396.782806 527.123230,406.661865 
	C527.129150,410.153687 528.332642,413.643524 529.051636,417.528259 
	C524.423035,417.422241 525.513367,413.326721 525.154175,410.707428 
	C524.580383,406.523071 524.996521,402.202942 524.992432,397.473328 
z"/>
<path fill="#DF2422" opacity="1.000000" stroke="none" 
	d="
M609.941406,405.505920 
	C609.602295,405.384308 609.068848,404.810028 609.070740,404.237518 
	C609.119324,389.717712 609.224060,375.198059 609.585632,360.368042 
	C609.900391,375.056488 609.948364,390.055328 609.941406,405.505920 
z"/>
<path fill="#DF2422" opacity="1.000000" stroke="none" 
	d="
M607.710510,408.268555 
	C608.420898,407.986115 608.841858,407.990936 609.578369,408.003601 
	C609.864563,415.973572 610.302551,424.041321 604.171448,430.740540 
	C603.390869,430.149475 603.194214,429.574799 602.997559,429.000092 
	C604.472046,422.185333 605.946533,415.370544 607.710510,408.268555 
z"/>
<path fill="#E42C2B" opacity="1.000000" stroke="none" 
	d="
M627.241211,383.871796 
	C627.203186,384.365082 627.165161,384.858368 627.184387,385.719971 
	C627.177917,389.156860 627.114136,392.225464 627.003662,395.761841 
	C626.611145,395.545013 625.962830,394.859772 625.964233,394.175903 
	C625.991943,380.885620 626.095581,367.595490 626.560852,354.069214 
	C626.997070,355.341125 627.056091,356.849213 627.122070,359.245331 
	C627.166443,368.046204 627.203857,375.958984 627.241211,383.871796 
z"/>
<path fill="#E4EBEE" opacity="1.000000" stroke="none" 
	d="
M275.448761,442.941040 
	C278.419800,439.122559 285.274689,438.743774 288.940063,442.473083 
	C284.643707,442.905914 280.276093,442.962250 275.448761,442.941040 
z"/>
<path fill="#DF2422" opacity="1.000000" stroke="none" 
	d="
M586.623291,417.997375 
	C587.196777,419.128174 587.468750,420.417633 587.740784,421.707092 
	C586.291992,421.885345 584.843140,422.063629 583.130493,422.088562 
	C584.018311,420.675507 585.170044,419.415771 586.623291,417.997375 
z"/>
<path fill="#E42C2B" opacity="1.000000" stroke="none" 
	d="
M602.722107,429.134033 
	C603.194214,429.574799 603.390869,430.149475 603.850769,430.891205 
	C603.314514,432.039673 602.514954,433.021088 601.376709,434.042969 
	C601.507507,432.478271 601.977051,430.873108 602.722107,429.134033 
z"/>
<path fill="#E42C2B" opacity="1.000000" stroke="none" 
	d="
M699.430420,441.895782 
	C699.278564,441.382233 699.541260,440.934692 699.903198,440.247498 
	C700.625793,440.037445 701.249084,440.067047 702.340820,440.193481 
	C701.821106,440.847473 700.833008,441.404633 699.430420,441.895782 
z"/>
<path fill="#DF2422" opacity="1.000000" stroke="none" 
	d="
M597.369141,437.115234 
	C597.536377,436.821625 598.012573,436.461365 598.812256,436.107147 
	C598.649902,436.424988 598.163940,436.736786 597.369141,437.115234 
z"/>
<path fill="#E4EBEE" opacity="1.000000" stroke="none" 
	d="
M731.245361,461.894257 
	C731.267944,461.715942 731.537109,461.623474 731.897888,461.676270 
	C731.823669,461.874390 731.657776,461.927246 731.245361,461.894257 
z"/>
<path fill="#F5F5F4" opacity="1.000000" stroke="none" 
	d="
M609.259094,461.901001 
	C609.280334,461.738800 609.539551,461.645142 609.887146,461.696106 
	C609.975464,461.840790 609.497131,461.969513 609.259094,461.901001 
z"/>
<path fill="#DF2422" opacity="1.000000" stroke="none" 
	d="
M527.911255,374.731995 
	C527.766724,374.712341 527.666565,374.460754 527.711975,374.123718 
	C527.857544,374.038208 527.955566,374.500092 527.911255,374.731995 
z"/>
<path fill="#DF2422" opacity="1.000000" stroke="none" 
	d="
M599.330505,436.021118 
	C599.059631,435.913574 599.037659,435.730743 599.011475,435.271606 
	C599.186157,434.999054 599.365234,435.002838 599.811768,435.040100 
	C599.912659,435.364288 599.746033,435.655029 599.330505,436.021118 
z"/>
<path fill="#DF2422" opacity="1.000000" stroke="none" 
	d="
M600.319214,435.034882 
	C600.230713,434.810791 600.405151,434.517395 600.826904,434.134644 
	C600.910156,434.352020 600.746155,434.658783 600.319214,435.034882 
z"/>
<path fill="#000000" opacity="1.000000" stroke="none" 
	d="
M199.154892,425.996887 
	C191.906784,425.991364 191.906784,425.991364 192.105103,417.839600 
	C207.940796,417.839600 223.813126,417.839600 239.995453,417.839600 
	C239.995453,418.900238 240.056625,420.363708 239.982361,421.820282 
	C239.840088,424.610535 238.818787,426.121643 235.521973,426.070282 
	C223.561981,425.883972 211.597351,425.996857 199.154892,425.996887 
z"/>
<path fill="#F5F5F4" opacity="1.000000" stroke="none" 
	d="
M78.010590,379.967255 
	C79.471352,376.413879 80.313782,372.897644 82.264145,370.175201 
	C83.210487,368.854279 86.232109,369.020111 88.314186,368.512817 
	C87.843895,370.226288 87.744865,372.175354 86.834656,373.609650 
	C83.943253,378.165802 81.687233,382.740356 81.865295,388.410706 
	C81.941139,390.826111 80.162132,393.255371 79.973640,395.735168 
	C79.759003,398.558868 79.906212,401.593262 80.740479,404.273224 
	C82.215088,409.010132 84.452217,413.504822 86.096382,418.196838 
	C86.561081,419.522980 86.074043,421.182648 86.023514,422.689331 
	C84.450478,422.053467 82.596222,421.755463 81.354332,420.721771 
	C76.620384,416.781555 77.168747,410.939117 76.373421,405.616913 
	C75.099487,397.091919 73.536606,388.536041 78.010590,379.967255 
z"/>
<path fill="#F5F5F4" opacity="1.000000" stroke="none" 
	d="
M133.000000,361.000000 
	C123.558426,361.000000 114.616852,361.000000 105.675278,361.000000 
	C105.467743,360.491333 105.260201,359.982666 105.052666,359.473999 
	C106.513214,358.653931 107.966843,357.135376 109.435379,357.120819 
	C125.905670,356.957397 142.378296,357.014008 158.850067,357.072571 
	C159.530411,357.074982 160.208618,357.679840 160.877121,358.778931 
	C151.995499,362.554260 142.603439,360.318420 133.000000,361.000000 
z"/>
<path fill="#FDFDFD" opacity="1.000000" stroke="none" 
	d="
M332.690979,427.921570 
	C332.722717,428.470123 332.595184,428.859222 332.467682,429.248322 
	C332.361298,429.142029 332.148834,429.012024 332.166382,428.933472 
	C332.255280,428.535645 332.403961,428.151215 332.690979,427.921570 
z"/>
<path fill="#FDFDFD" opacity="1.000000" stroke="none" 
	d="
M335.450348,369.532013 
	C335.417694,369.477112 335.483002,369.586914 335.450348,369.532013 
z"/>
<path fill="#D21C19" opacity="1.000000" stroke="none" 
	d="
M532.007446,424.439331 
	C544.997803,427.637207 558.259949,427.310120 571.525452,426.605530 
	C574.139954,426.466644 576.717163,425.624817 579.654541,425.054810 
	C579.735046,427.746307 579.472595,430.490173 579.212646,433.208160 
	C583.181641,434.295654 586.908142,435.316681 590.821777,436.672119 
	C587.667542,437.674988 584.333984,438.870270 580.983276,438.920532 
	C566.680603,439.135315 552.363770,439.306122 538.071960,438.858154 
	C532.797791,438.692841 527.578491,436.778778 522.154053,435.339539 
	C530.890747,436.359161 531.996033,435.241974 532.007446,424.439331 
z"/>
<path fill="#DF2422" opacity="1.000000" stroke="none" 
	d="
M607.631775,397.071014 
	C607.999207,398.713501 608.000793,400.433105 608.002441,402.583008 
	C604.932983,401.412842 605.325684,399.377655 607.631775,397.071014 
z"/>
<path fill="#DF2422" opacity="1.000000" stroke="none" 
	d="
M605.037231,358.343719 
	C605.977295,358.781036 606.952209,359.557190 607.956909,360.675354 
	C607.015076,360.239105 606.043518,359.460815 605.037231,358.343719 
z"/>
<path fill="#000000" opacity="1.000000" stroke="none" 
	d="
M705.857666,368.083313 
	C710.191833,371.216583 711.394287,375.709656 710.223389,380.612671 
	C709.388000,384.110413 707.343201,385.005981 703.690247,385.587952 
	C685.364685,386.003235 667.705261,386.059906 649.678406,385.876282 
	C649.214844,380.920471 648.911011,376.193909 649.160645,371.496796 
	C649.227722,370.233704 650.978088,369.060028 652.422485,367.916046 
	C669.607727,367.951141 686.326355,367.915497 703.269836,367.939880 
	C703.494690,367.999939 703.950806,367.907532 704.265625,367.963135 
	C705.006165,368.040253 705.431885,368.061798 705.857666,368.083313 
z"/>
<path fill="#D21C19" opacity="1.000000" stroke="none" 
	d="
M703.044983,367.879852 
	C686.326355,367.915497 669.607727,367.951141 652.260620,367.631897 
	C650.885132,366.292358 649.625549,365.377380 649.480591,364.310852 
	C648.877869,359.878265 644.656189,357.220490 640.148010,358.403351 
	C637.163879,359.186279 634.050598,359.476776 630.995117,359.987732 
	C630.437073,358.193665 629.878967,356.399597 629.320862,354.605530 
	C631.113098,354.070618 632.903381,353.077515 634.697876,353.069916 
	C659.251709,352.965637 683.811523,352.732178 708.355286,353.237732 
	C712.831482,353.329926 717.242798,356.573456 721.844482,358.678711 
	C718.029053,360.044434 713.873169,360.686096 710.158447,362.326569 
	C708.470581,363.071960 707.656250,365.795349 706.151672,367.852417 
	C705.431885,368.061798 705.006165,368.040253 704.190735,367.809082 
	C703.549072,367.692932 703.296997,367.786377 703.044983,367.879852 
z"/>
<path fill="#D21C19" opacity="1.000000" stroke="none" 
	d="
M702.004883,389.022919 
	C701.993713,389.354523 702.031250,389.696320 701.964294,390.016235 
	C700.299133,397.974670 700.297119,397.974243 706.816772,402.045990 
	C706.960938,403.226166 706.938477,403.714935 706.598511,404.140076 
	C705.852844,404.024109 705.424683,403.971832 704.866577,403.699158 
	C704.433105,403.334625 704.129578,403.190552 703.374390,403.032074 
	C692.869446,403.344788 682.817444,403.868866 672.762512,403.932800 
	C665.530701,403.978790 658.294922,403.410797 650.876160,402.829193 
	C649.920898,400.646576 649.920898,400.646576 655.385925,398.827881 
	C654.604553,395.587585 653.808350,392.285797 653.480103,388.985352 
	C669.966980,388.998779 685.985901,389.010834 702.004883,389.022919 
z"/>
<path fill="#DF1514" opacity="1.000000" stroke="none" 
	d="
M728.729370,402.265015 
	C729.681152,404.158386 730.801758,406.304779 730.906494,408.499664 
	C731.148315,413.567291 731.027161,418.664032 730.807922,423.738373 
	C730.610046,428.318451 723.159546,435.194305 717.425293,436.022827 
	C714.553223,434.220032 711.809021,432.662872 709.696594,430.491150 
	C708.775635,429.544312 709.150146,427.337402 709.129517,425.204071 
	C708.881775,424.469849 708.440857,424.234314 708.000000,423.998779 
	C708.000000,423.998779 708.000000,424.000000 707.996216,423.721313 
	C707.980347,423.257172 707.968384,423.071747 708.077148,422.617981 
	C708.758484,422.211884 709.319092,422.074097 710.258057,421.950989 
	C712.417786,421.309998 714.199158,420.654297 715.980469,419.998596 
	C721.670227,418.845490 727.871826,411.552887 728.016541,405.911713 
	C728.045410,404.785004 728.291077,403.663849 728.729370,402.265015 
z"/>
<path fill="#E42C2B" opacity="1.000000" stroke="none" 
	d="
M702.295227,389.015594 
	C685.985901,389.010834 669.966980,388.998779 653.627380,388.746033 
	C653.288025,388.014954 653.417908,387.174316 653.225647,387.092712 
	C652.210449,386.661987 651.114075,386.422485 650.045898,386.116608 
	C667.705261,386.059906 685.364685,386.003235 703.486694,385.900513 
	C703.898254,386.611877 703.972900,387.410004 703.746155,388.110565 
	C703.621826,388.494781 702.989075,388.714417 702.295227,389.015594 
z"/>
<path fill="#DF2422" opacity="1.000000" stroke="none" 
	d="
M715.985413,419.547913 
	C714.199158,420.654297 712.417786,421.309998 710.417114,421.634583 
	C716.758484,415.477631 713.560669,408.512390 706.916016,404.203735 
	C706.938477,403.714935 706.960938,403.226166 706.990479,402.370514 
	C712.169006,403.734161 715.832458,408.447968 715.982300,413.626526 
	C716.035095,415.448639 715.990479,417.273560 715.985413,419.547913 
z"/>
<path fill="#DF1514" opacity="1.000000" stroke="none" 
	d="
M725.631226,391.060181 
	C726.303772,391.095886 726.570496,391.281616 726.885986,391.775909 
	C726.867920,393.319763 726.740234,394.642456 726.619568,395.892273 
	C723.753052,394.249268 723.753052,394.249268 725.631226,391.060181 
z"/>
<path fill="#D21C19" opacity="1.000000" stroke="none" 
	d="
M406.626953,415.666229 
	C406.895050,422.564911 406.895050,429.176178 406.895050,435.787476 
	C406.615723,435.796875 406.336395,435.806305 406.057068,435.815704 
	C406.057068,430.544922 406.057068,425.274109 406.057068,420.003326 
	C405.703613,420.009338 405.350159,420.015350 404.996704,420.021332 
	C404.996704,424.293762 405.019775,428.566315 404.990082,432.838531 
	C404.961182,436.999084 403.308441,439.183472 398.665558,439.074463 
	C386.014557,438.777466 388.217133,440.369690 387.982605,426.472046 
	C387.986206,423.306854 387.994385,420.601349 388.004944,417.445007 
	C390.061829,417.973206 392.060608,419.099426 394.181610,419.902954 
	C399.940643,422.084869 403.588074,419.569641 404.025238,413.349091 
	C404.170959,411.275452 404.599304,409.221619 405.715057,407.172668 
	C405.929688,409.908051 406.144287,412.643463 406.626953,415.666229 
z"/>
<path fill="#DF1514" opacity="1.000000" stroke="none" 
	d="
M388.437805,373.001740 
	C388.001343,371.934784 387.999054,370.867157 387.996552,369.399139 
	C388.010223,359.749390 390.123444,357.883179 399.242889,360.261353 
	C401.162964,360.762054 403.224731,363.579529 403.792664,365.710266 
	C404.574280,368.642548 403.996216,371.937256 403.998505,375.539551 
	C398.954865,375.001984 393.913391,374.001526 388.437805,373.001740 
z"/>
<path fill="#DF1514" opacity="1.000000" stroke="none" 
	d="
M405.465424,385.609131 
	C405.349548,386.058258 405.064606,386.330688 404.779663,386.603149 
	C404.666901,386.485107 404.554138,386.367065 404.441345,386.249023 
	C404.726349,385.976807 405.011353,385.704620 405.465424,385.609131 
z"/>
<path fill="#E42C2B" opacity="1.000000" stroke="none" 
	d="
M411.001587,389.001221 
	C410.050781,389.002441 409.098358,389.002441 408.145966,389.002441 
	C408.161743,388.741882 408.177521,388.481323 408.193268,388.220764 
	C408.997375,388.311768 409.801453,388.402740 410.804504,388.748138 
	C411.003448,389.002563 411.000000,389.000000 411.001587,389.001221 
z"/>
<path fill="#D21C19" opacity="1.000000" stroke="none" 
	d="
M405.529755,379.549408 
	C405.474762,379.582245 405.584747,379.516571 405.529755,379.549408 
z"/>
<path fill="#DF1514" opacity="1.000000" stroke="none" 
	d="
M487.976074,425.544678 
	C486.980225,427.160370 485.618500,428.192749 485.075897,429.552094 
	C484.013489,432.213684 482.740875,435.132782 479.573395,433.746094 
	C477.015503,432.626312 474.040375,430.227539 473.258484,427.759857 
	C471.755371,423.016327 471.675079,417.821960 471.007812,412.406067 
	C475.123535,411.649170 478.289825,412.738434 480.071899,416.955048 
	C481.454437,420.226288 484.372467,419.828705 487.549377,419.003357 
	C487.934143,421.035583 487.957275,423.072357 487.976074,425.544678 
z"/>
<path fill="#DF1514" opacity="1.000000" stroke="none" 
	d="
M469.534729,386.390808 
	C469.650757,385.941284 469.936035,385.668488 470.221313,385.395691 
	C470.334198,385.513855 470.447052,385.632019 470.559906,385.750214 
	C470.274597,386.022644 469.989288,386.295074 469.534729,386.390808 
z"/>
<path fill="#000000" opacity="1.000000" stroke="none" 
	d="
M706.598511,404.140076 
	C713.560669,408.512390 716.758484,415.477631 710.038696,421.619873 
	C709.319092,422.074097 708.758484,422.211884 707.827026,422.715698 
	C707.259216,423.373138 707.062378,423.664551 706.865479,423.955933 
	C706.865479,423.955933 706.403992,423.994110 705.854187,424.000061 
	C704.179382,423.958618 703.054321,423.911194 701.929321,423.863739 
	C698.609192,423.896088 695.289001,423.928436 691.256714,423.576294 
	C677.970703,423.522491 665.396912,423.853180 652.823059,424.183838 
	C652.823059,424.183838 652.364380,424.119659 652.364380,424.119659 
	C652.364380,424.119659 651.929871,424.280762 651.617798,424.109924 
	C650.564697,423.152924 649.135620,422.314301 649.190918,421.588867 
	C649.661194,415.419830 650.401550,409.271332 651.060913,403.116699 
	C658.294922,403.410797 665.530701,403.978790 672.762512,403.932800 
	C682.817444,403.868866 692.869446,403.344788 703.475220,403.290558 
	C704.350769,403.682159 704.673645,403.800842 704.996582,403.919556 
	C705.424683,403.971832 705.852844,404.024109 706.598511,404.140076 
z"/>
<path fill="#DF2422" opacity="1.000000" stroke="none" 
	d="
M652.987122,424.593964 
	C665.396912,423.853180 677.970703,423.522491 690.805969,423.534912 
	C690.202332,424.247772 689.349731,424.905029 688.470337,424.943115 
	C678.961792,425.355164 669.448975,425.669830 659.471130,426.016754 
	C657.053650,425.682953 655.102417,425.343506 652.987122,424.593964 
z"/>
<path fill="#DF2422" opacity="1.000000" stroke="none" 
	d="
M702.125549,424.139801 
	C703.054321,423.911194 704.179382,423.958618 705.633423,424.069702 
	C704.748840,424.227539 703.535339,424.321686 702.125549,424.139801 
z"/>
<path fill="#DF2422" opacity="1.000000" stroke="none" 
	d="
M708.107300,424.220917 
	C708.440857,424.234314 708.881775,424.469849 709.165771,424.856079 
	C708.682922,424.905060 708.418152,424.717163 708.107300,424.220917 
z"/>
<path fill="#DF2422" opacity="1.000000" stroke="none" 
	d="
M707.149048,423.974487 
	C707.062378,423.664551 707.259216,423.373138 707.706177,422.984009 
	C707.968384,423.071747 707.980347,423.257172 707.996582,423.721313 
	C707.811401,423.997650 707.621948,423.995331 707.149048,423.974487 
z"/>
<path fill="#E51011" opacity="1.000000" stroke="none" 
	d="
M650.876160,402.829193 
	C650.401550,409.271332 649.661194,415.419830 649.190918,421.588867 
	C649.135620,422.314301 650.564697,423.152924 651.479126,424.296814 
	C650.435303,425.839020 648.379456,426.882202 648.151855,428.233368 
	C647.347168,433.009094 644.178833,433.851654 640.238098,434.008423 
	C636.616089,434.152557 632.971375,434.425781 632.873962,429.200378 
	C632.701416,419.947968 632.667236,410.689880 632.293823,401.445496 
	C632.047546,395.347900 631.309143,389.270172 630.395569,383.093445 
	C630.221252,375.588226 630.442505,368.173126 630.829407,360.372894 
	C634.050598,359.476776 637.163879,359.186279 640.148010,358.403351 
	C644.656189,357.220490 648.877869,359.878265 649.480591,364.310852 
	C649.625549,365.377380 650.885132,366.292358 651.793945,367.561157 
	C650.978088,369.060028 649.227722,370.233704 649.160645,371.496796 
	C648.911011,376.193909 649.214844,380.920471 649.678406,385.876282 
	C651.114075,386.422485 652.210449,386.661987 653.225647,387.092712 
	C653.417908,387.174316 653.288025,388.014954 653.159485,388.744690 
	C653.808350,392.285797 654.604553,395.587585 655.385925,398.827881 
	C649.920898,400.646576 649.920898,400.646576 650.876160,402.829193 
z"/>
<path fill="#DF2422" opacity="1.000000" stroke="none" 
	d="
M628.548096,408.173218 
	C628.614380,403.262512 628.614380,398.690033 628.614380,394.117584 
	C628.947876,394.127502 629.281372,394.137421 629.614868,394.147308 
	C629.614868,403.195679 629.614868,412.244049 629.614868,421.292419 
	C629.237183,421.306885 628.859497,421.321381 628.481812,421.335846 
	C628.481812,417.061066 628.481812,412.786285 628.548096,408.173218 
z"/>
<path fill="#DF1514" opacity="1.000000" stroke="none" 
	d="
M627.573975,383.830078 
	C627.203857,375.958984 627.166443,368.046204 627.174316,359.694702 
	C627.479553,363.131561 627.863403,367.003815 627.966431,370.883514 
	C628.080444,375.181580 627.937683,379.486420 627.573975,383.830078 
z"/>
<path fill="#E42C2B" opacity="1.000000" stroke="none" 
	d="
M469.466583,420.449524 
	C469.523193,420.415466 469.409973,420.483612 469.466583,420.449524 
z"/>
<path fill="#DF2422" opacity="1.000000" stroke="none" 
	d="
M386.470337,434.450989 
	C386.524353,434.418915 386.416321,434.483063 386.470337,434.450989 
z"/>
<path fill="#E51011" opacity="1.000000" stroke="none" 
	d="
M703.269836,367.939880 
	C703.296997,367.786377 703.549072,367.692932 703.875977,367.753479 
	C703.950806,367.907532 703.494690,367.999939 703.269836,367.939880 
z"/>
<path fill="#DF2422" opacity="1.000000" stroke="none" 
	d="
M704.866577,403.699127 
	C704.673645,403.800842 704.350769,403.682159 703.927002,403.304962 
	C704.129578,403.190552 704.433105,403.334625 704.866577,403.699127 
z"/>
</svg>